<?xml version="1.0" encoding="UTF-8"?>
<svg xmlns="http://www.w3.org/2000/svg" xmlns:xlink="http://www.w3.org/1999/xlink" width="160px" height="160px" viewBox="0 0 160 160" version="1.1">
<g id="surface1">
<path style=" stroke:none;fill-rule:nonzero;fill:rgb(50.196078%,81.568627%,78.039216%);fill-opacity:1;" d="M 33.332031 73.332031 L 43.332031 43.332031 L 116.667969 43.332031 L 126.667969 73.332031 M 116.667969 106.667969 C 111.144531 106.667969 106.667969 102.191406 106.667969 96.667969 C 106.667969 91.144531 111.144531 86.667969 116.667969 86.667969 C 122.191406 86.667969 126.667969 91.144531 126.667969 96.667969 C 126.667969 102.191406 122.191406 106.667969 116.667969 106.667969 M 43.332031 106.667969 C 37.808594 106.667969 33.332031 102.191406 33.332031 96.667969 C 33.332031 91.144531 37.808594 86.667969 43.332031 86.667969 C 48.855469 86.667969 53.332031 91.144531 53.332031 96.667969 C 53.332031 102.191406 48.855469 106.667969 43.332031 106.667969 M 126.132812 40 C 124.800781 36.132812 121.066406 33.332031 116.667969 33.332031 L 43.332031 33.332031 C 38.933594 33.332031 35.199219 36.132812 33.867188 40 L 20 80 L 20 133.332031 C 20 137.015625 22.984375 140 26.667969 140 L 33.332031 140 C 37.015625 140 40 137.015625 40 133.332031 L 40 126.667969 L 120 126.667969 L 120 133.332031 C 120 137.015625 122.984375 140 126.667969 140 L 133.332031 140 C 137.015625 140 140 137.015625 140 133.332031 L 140 80 Z M 126.132812 40 "/>
</g>
</svg>
